<svg xmlns="http://www.w3.org/2000/svg" xmlns:xlink="http://www.w3.org/1999/xlink" viewBox="0 0 197.43 113.73"><defs><style>.cls-1{fill:url(#未命名漸層_86);}.cls-2{fill:url(#未命名漸層_22);}.cls-3{fill:url(#未命名漸層_41);}.cls-4{fill:url(#未命名漸層_78);}.cls-5{fill:#8fa4b5;}</style><linearGradient id="未命名漸層_86" x1="132.71" y1="42.62" x2="176.61" y2="86.52" gradientUnits="userSpaceOnUse"><stop offset="0" stop-color="#f59d3a" stop-opacity="0"/><stop offset="0.6" stop-color="#8fa4b5" stop-opacity="0.6"/><stop offset="0.8" stop-color="#8fa4b5" stop-opacity="0.8"/><stop offset="1" stop-color="#8fa4b5"/></linearGradient><linearGradient id="未命名漸層_22" x1="186.38" y1="25.9" x2="117.1" y2="65.9" gradientUnits="userSpaceOnUse"><stop offset="0" stop-color="#f59d3a" stop-opacity="0"/><stop offset="0.6" stop-color="#f59d3a"/><stop offset="0.8" stop-color="#f5773a"/><stop offset="1" stop-color="#f5773a"/></linearGradient><linearGradient id="未命名漸層_41" x1="11.05" y1="87.83" x2="80.34" y2="47.83" xlink:href="#未命名漸層_22"/><linearGradient id="未命名漸層_78" x1="36.94" y1="118.64" x2="160.5" y2="-4.92" gradientUnits="userSpaceOnUse"><stop offset="0" stop-color="#8fa4b5"/><stop offset="0.29" stop-color="#8fa4b5" stop-opacity="0.6"/><stop offset="0.55" stop-color="#8fa4b5" stop-opacity="0.05"/><stop offset="0.77" stop-color="#8fa4b5" stop-opacity="0.6"/><stop offset="1" stop-color="#8fa4b5"/></linearGradient></defs><g id="圖層_2" data-name="圖層 2"><g id="圖層_1-2" data-name="圖層 1"><path class="cls-1" d="M154.66,93.64c-20,0-36.2-16.47-36.2-36.78h72.39C190.85,77.17,174.65,93.64,154.66,93.64Z"/><path class="cls-2" d="M197.43,56.86c0-20.31-16.2-36.77-36.19-36.77S125,36.55,125,56.86H111.88c0-24,19.15-43.46,42.78-43.46s42.77,19.46,42.77,43.46"/><path class="cls-3" d="M0,56.86C0,77.17,16.21,93.64,36.2,93.64S72.39,77.17,72.39,56.86H85.56c0,24-19.16,43.47-42.78,43.47S0,80.87,0,56.86"/><path class="cls-4" d="M144.79,0C115.71,0,92.14,25.46,92.14,56.86c0,25.85-20.63,46.81-46.07,46.81S0,82.71,0,56.86c0,31.41,23.57,56.87,52.65,56.87S105.3,88.27,105.3,56.86c0-25.85,20.62-46.8,46.07-46.8s46.06,21,46.06,46.8C197.43,25.46,173.86,0,144.79,0Z"/><path class="cls-5" d="M11.78,27.87A6.59,6.59,0,0,1,7.22,26l1.44-1.75a5.37,5.37,0,0,0,1.52,1,3.92,3.92,0,0,0,1.65.4,2.4,2.4,0,0,0,1.48-.39,1.27,1.27,0,0,0,.52-1.07,1.25,1.25,0,0,0-.49-1,7.07,7.07,0,0,0-1.27-.66L12,22.5l-1.67-.72a3.57,3.57,0,0,1-2.53-3.41A3.33,3.33,0,0,1,9,15.74a4.64,4.64,0,0,1,3.11-1,5.44,5.44,0,0,1,2.13.43A5.32,5.32,0,0,1,16,16.33l-1.27,1.59a4,4,0,0,0-2.65-1,2.2,2.2,0,0,0-1.32.36,1.15,1.15,0,0,0-.49,1,1.17,1.17,0,0,0,.54,1,6.68,6.68,0,0,0,1.3.64l.12.05,1.64.7a4.53,4.53,0,0,1,1.82,1.27,3.41,3.41,0,0,1,.7,2.18,3.46,3.46,0,0,1-1.22,2.69A4.81,4.81,0,0,1,11.78,27.87Z"/><path class="cls-5" d="M19,27.63V14.94h2.5v5h4.73v-5h2.48V27.63H26.24V22.14H21.51v5.49Z"/><path class="cls-5" d="M40.06,27.8c-1.09-.11-2.39-.17-3.91-.17h-2a18.21,18.21,0,0,0-2,.09c-.09,0-.13,0-.13-.09A13,13,0,0,0,32.21,25V18.11a30.9,30.9,0,0,0-.13-3.17c0-.06,0-.09.13-.09a17.35,17.35,0,0,0,1.91.09h1.93c1.14,0,2.42-.06,3.83-.17a7.14,7.14,0,0,1,0,1.21,6.62,6.62,0,0,1,0,1.19,24.32,24.32,0,0,0-2.58-.12H34.71V20h2.2c.74,0,1.47,0,2.19-.1a5.2,5.2,0,0,1,0,1.16,5.54,5.54,0,0,1,0,1.17,18.07,18.07,0,0,0-2.19-.1h-2.2V25.5H37.4c.75,0,1.64,0,2.66-.12a5.37,5.37,0,0,1,.06,1.2A5.84,5.84,0,0,1,40.06,27.8Z"/><path class="cls-5" d="M44.18,27.72a5,5,0,0,1-1.36-.09c.13-1.29.2-3,.2-5.14V14.94h2.55L49.2,21.7l1.25,2.74h.08c0-.07,0-.17,0-.31-.19-1.87-.29-3.25-.29-4.13V17.46a23.62,23.62,0,0,0-.1-2.52,4.13,4.13,0,0,1,1.29-.09,4.31,4.31,0,0,1,1.31.09,30.9,30.9,0,0,0-.13,3.17v9.52H50l-3.61-6.79-1.27-2.73h-.08c0,.19,0,.5.08.91.15,1.58.22,2.75.22,3.52v2.55a24.1,24.1,0,0,0,.11,2.54A4.11,4.11,0,0,1,44.18,27.72Z"/><path class="cls-5" d="M61.46,27.87a5.66,5.66,0,0,1-4.27-1.68,6.66,6.66,0,0,1-1.73-4.85,6.77,6.77,0,0,1,1.76-4.89,5.57,5.57,0,0,1,4.24-1.75,5.16,5.16,0,0,1,3.87,1.63L64,17.94a3.38,3.38,0,0,0-2.45-1.06A3.12,3.12,0,0,0,59,18a4.9,4.9,0,0,0-1,3.21,5,5,0,0,0,.93,3.24,3.37,3.37,0,0,0,2.77,1.19,2.32,2.32,0,0,0,1.57-.48V22.69H62.17c-.37,0-.74,0-1.1,0a5.16,5.16,0,0,1,0-1.1,5.94,5.94,0,0,1,0-1.13,18.33,18.33,0,0,0,2.21.1h2.23v5.74a5.22,5.22,0,0,1-1.69,1.08A6.43,6.43,0,0,1,61.46,27.87Z"/><path class="cls-5" d="M11.78,48.46a6.59,6.59,0,0,1-4.56-1.85l1.44-1.75a5.37,5.37,0,0,0,1.52,1,3.9,3.9,0,0,0,1.65.39,2.47,2.47,0,0,0,1.48-.38,1.29,1.29,0,0,0,.52-1.08,1.27,1.27,0,0,0-.49-1,7.23,7.23,0,0,0-1.27-.65l-.12,0-1.67-.72A3.57,3.57,0,0,1,7.75,39,3.32,3.32,0,0,1,9,36.33a4.59,4.59,0,0,1,3.11-1A5.56,5.56,0,0,1,16,36.91l-1.27,1.6a4.06,4.06,0,0,0-2.65-1,2.2,2.2,0,0,0-1.32.36,1.19,1.19,0,0,0,.05,2,6.25,6.25,0,0,0,1.3.63l.12.05,1.64.71a4.43,4.43,0,0,1,1.82,1.27,3.41,3.41,0,0,1,.7,2.18,3.46,3.46,0,0,1-1.22,2.69A4.81,4.81,0,0,1,11.78,48.46Z"/><path class="cls-5" d="M24,48.46a5.06,5.06,0,0,1-4-1.78,7.18,7.18,0,0,1-1.56-4.86A7,7,0,0,1,19.94,37a5.14,5.14,0,0,1,4-1.72A5.14,5.14,0,0,1,28,37a7.13,7.13,0,0,1,1.55,4.83A7.22,7.22,0,0,1,28,46.68,5.06,5.06,0,0,1,24,48.46Zm0-2.2a2.58,2.58,0,0,0,2.22-1.2A5.63,5.63,0,0,0,27,41.82a5.43,5.43,0,0,0-.82-3.2,2.7,2.7,0,0,0-4.44,0,5.49,5.49,0,0,0-.82,3.19,5.69,5.69,0,0,0,.83,3.25A2.54,2.54,0,0,0,24,46.26Z"/><path class="cls-5" d="M33.6,48.31a5.06,5.06,0,0,1-1.37-.09,50.48,50.48,0,0,0,.2-5.15V35.52H35l3.63,6.76L39.86,45H40c0-.07,0-.17,0-.31-.19-1.88-.28-3.25-.28-4.14V38.05a23.49,23.49,0,0,0-.11-2.53,4.78,4.78,0,0,1,1.29-.08,5.11,5.11,0,0,1,1.32.08A28.28,28.28,0,0,0,42,38.7v9.52H39.46l-3.62-6.79L34.58,38.7h-.09c0,.19,0,.49.09.91.14,1.58.22,2.75.22,3.51v2.56a24.68,24.68,0,0,0,.1,2.54A4.07,4.07,0,0,1,33.6,48.31Z"/><path class="cls-5" d="M50.87,48.46a5.66,5.66,0,0,1-4.27-1.68,6.66,6.66,0,0,1-1.72-4.86A6.8,6.8,0,0,1,46.63,37a5.62,5.62,0,0,1,4.24-1.75,5.2,5.2,0,0,1,3.87,1.63L53.4,38.53A3.39,3.39,0,0,0,51,37.46a3.13,3.13,0,0,0-2.55,1.17,4.85,4.85,0,0,0-1,3.21,5,5,0,0,0,.93,3.24,3.34,3.34,0,0,0,2.76,1.18,2.32,2.32,0,0,0,1.57-.48v-2.5H51.58c-.37,0-.74,0-1.1,0a5.16,5.16,0,0,1,0-1.1,5.85,5.85,0,0,1,0-1.13,18.33,18.33,0,0,0,2.21.1h2.23v5.73A5,5,0,0,1,53.24,48,6.32,6.32,0,0,1,50.87,48.46Z"/></g></g></svg>