<svg xmlns="http://www.w3.org/2000/svg" xmlns:xlink="http://www.w3.org/1999/xlink" viewBox="0 0 547.88 113.73"><defs><style>.cls-1{fill:url(#未命名漸層_86);}.cls-2{fill:url(#未命名漸層_22);}.cls-3{fill:url(#未命名漸層_41);}.cls-4{fill:url(#未命名漸層_78);}.cls-5{fill:#8fa4b5;}</style><linearGradient id="未命名漸層_86" x1="132.71" y1="42.62" x2="176.61" y2="86.52" gradientUnits="userSpaceOnUse"><stop offset="0" stop-color="#f59d3a" stop-opacity="0"/><stop offset="0.6" stop-color="#8fa4b5" stop-opacity="0.6"/><stop offset="0.8" stop-color="#8fa4b5" stop-opacity="0.8"/><stop offset="1" stop-color="#8fa4b5"/></linearGradient><linearGradient id="未命名漸層_22" x1="186.38" y1="25.9" x2="117.1" y2="65.9" gradientUnits="userSpaceOnUse"><stop offset="0" stop-color="#f59d3a" stop-opacity="0"/><stop offset="0.6" stop-color="#f59d3a"/><stop offset="0.8" stop-color="#f5773a"/><stop offset="1" stop-color="#f5773a"/></linearGradient><linearGradient id="未命名漸層_41" x1="11.05" y1="87.83" x2="80.34" y2="47.83" xlink:href="#未命名漸層_22"/><linearGradient id="未命名漸層_78" x1="36.94" y1="118.64" x2="160.5" y2="-4.92" gradientUnits="userSpaceOnUse"><stop offset="0" stop-color="#8fa4b5"/><stop offset="0.29" stop-color="#8fa4b5" stop-opacity="0.6"/><stop offset="0.55" stop-color="#8fa4b5" stop-opacity="0.05"/><stop offset="0.77" stop-color="#8fa4b5" stop-opacity="0.6"/><stop offset="1" stop-color="#8fa4b5"/></linearGradient></defs><g id="圖層_2" data-name="圖層 2"><g id="圖層_1-2" data-name="圖層 1"><path class="cls-1" d="M154.66,93.64c-20,0-36.2-16.47-36.2-36.78h72.39C190.85,77.17,174.65,93.64,154.66,93.64Z"/><path class="cls-2" d="M197.43,56.86c0-20.31-16.2-36.77-36.19-36.77S125,36.55,125,56.86H111.88c0-24,19.15-43.46,42.78-43.46s42.77,19.46,42.77,43.46"/><path class="cls-3" d="M0,56.86C0,77.17,16.21,93.64,36.2,93.64S72.39,77.17,72.39,56.86H85.56c0,24-19.16,43.47-42.78,43.47S0,80.87,0,56.86"/><path class="cls-4" d="M144.79,0C115.71,0,92.14,25.46,92.14,56.86c0,25.85-20.63,46.81-46.07,46.81S0,82.71,0,56.86c0,31.41,23.57,56.87,52.65,56.87S105.3,88.27,105.3,56.86c0-25.85,20.62-46.8,46.07-46.8s46.06,21,46.06,46.8C197.43,25.46,173.86,0,144.79,0Z"/><path class="cls-5" d="M254.86,33.71V34l.22.22a6.08,6.08,0,0,0,4.26,2,5.58,5.58,0,0,0,1.39-.18h0a5,5,0,0,0,3.58-3.74A7.23,7.23,0,0,0,262.71,26c-1.79-2.4-4.79-4.36-8.92-5.83l-.25-.09-1.69.68.29.69A31.78,31.78,0,0,1,254.86,33.71Z"/><path class="cls-5" d="M456.82,57.18l-.69-.58-2.21,4.32V23l-12-1.17V66.91l-24.26,4.58,1.65,3.35,22.61-4.29V93.47h2.76a14.16,14.16,0,0,0,6-1.43c2.26-1,3.22-1.81,3.22-2.74v-21l8.66-1.64c1.95-.36,2.24-1.56,2.24-2.25v-.34l-.25-.22C462,61.59,459.4,59.35,456.82,57.18Z"/><path class="cls-5" d="M299.2,50.28l.11-.44-.34-.3c-2.7-2.34-5.47-4.68-8.21-7l-.58-.48-4.75,6.35h-.52a26.74,26.74,0,0,1-6.15-7h15.75c2.09,0,2.62-1.15,2.74-1.83l.08-.43L297,38.9c-2.78-2.25-5.52-4.43-8.13-6.5L288.3,32l-4.66,5.87h-1.91a76.58,76.58,0,0,0,9.4-9.23l2.27-2.73-11.39-4-.16.82a103.16,103.16,0,0,1-4.53,15.16h-2.25A92.58,92.58,0,0,0,278.28,25l.53-3.07-12-2.07,0,.82a99.15,99.15,0,0,1-2.25,17.11H251.92V25.53l-6.83-5.39-4.3,4.93h-1L228.29,21v34c0,8.76-.15,15.35-.45,19.59a70.17,70.17,0,0,1-3.35,17.84l-.19.55L226.08,94l.41-.38a35.89,35.89,0,0,0,9.29-14.2,61.06,61.06,0,0,0,2.92-15h2.37V81.2c0,.54-.15.56-.44.57-1.61-.11-3.26-.18-4.91-.23l-.74,0v2.43l.58.12a4.7,4.7,0,0,1,3.56,2.6c.34.66.78,2.36.9,6.63l0,.79.77-.08c4.54-.43,7.56-1.58,9.22-3.56,1.27-1.62,1.89-4.3,1.89-8.17V67c.68-.37,1.36-.75,2-1.14l.94,3h7.75c-1.36,10-5.75,17.74-13.06,23l-.56.41,1.21,1.92.54-.2c7.11-2.63,12.65-6.3,16.48-10.91l.53-.66v1.74l.54.15a8.72,8.72,0,0,1,4.8,2.72c.51.67,1.09,2.26,1,6l0,.76h.75c3.93,0,7.13-.81,9.5-2.42,1.95-1.32,3.36-3.64,4.21-6.92A84.64,84.64,0,0,0,290.18,70l.19-3.77.39.24.87.54.21-1c1-5,3.19-7.89,6.69-8.84L299,57l.18-2-.62-.14a34.81,34.81,0,0,1-7.93-2.83h5.82C298.46,52.06,299,50.94,299.2,50.28ZM241.07,46.4V60.83h-2.21c.08-2.11.12-5,.12-8.59V46.4ZM239,42.79V28.68h2.09V42.79Zm31.57,5.66a72,72,0,0,0,3.24-7h1.78a66.5,66.5,0,0,0,1.77,7Zm8.11,16.73h-4.2c.27-1.83.48-3.89.61-6.16l.18-3.27-8.92-.83c.87-1.17,1.54-2.12,2-2.86h10.33a32.13,32.13,0,0,0,5,8.33ZM251.92,52.06h7.72a46.48,46.48,0,0,1-7.72,11ZM263,58.72a62.2,62.2,0,0,1,0,6.46h-8A44.24,44.24,0,0,0,263,58.72ZM251.92,39l.68,2.45h11a50.71,50.71,0,0,1-2.39,7h-9.34Zm16.24,42.89a33.67,33.67,0,0,0,5.66-13.09h5c-.61,10.68-1.71,12.69-2.17,13.06l-.06.05c-.08.08-.4.32-1.52.32a60,60,0,0,1-6.54-.3Z"/><path class="cls-5" d="M421.53,66.62a5.1,5.1,0,0,0,3.64-4.13A7.4,7.4,0,0,0,423.29,56c-1.91-2.3-5-4.15-9.16-5.49v-2.4h9.43a5,5,0,0,0,.71,0,21.12,21.12,0,0,1,2.85,4.56A20.44,20.44,0,0,1,429,59.22l0,.33.27.2a7.52,7.52,0,0,0,4.45,1.64,6.2,6.2,0,0,0,2.59-.58,6,6,0,0,0,3.58-5,7.32,7.32,0,0,0-3.21-6.6c-2.44-2-6-3.19-10.64-3.68-1.2-1.26-2.89-2.9-5-4.87-.92-.89-1.86-1.77-2.87-2.69l-.61-.56-3.44,5.14V33c1.82-.31,3.3-.6,4.42-.87l1-.26a25,25,0,0,0,4.2-1.59l.64-.32.26.29a22.61,22.61,0,0,1,3.71,5.84A21.66,21.66,0,0,1,430.14,43l0,.33.25.2A7.37,7.37,0,0,0,435,45.38a6,6,0,0,0,2.35-.5,5.86,5.86,0,0,0,3.67-5c.28-2.54-.74-4.83-3-6.82-2.66-2.33-6.71-3.83-12.05-4.46l-.28,0-1.23.94-11-9.85-.48.42a66.19,66.19,0,0,1-9.82,6.8,93.77,93.77,0,0,1-12.24,6.22l-.55.22.38,2h.61c3.64-.1,7.28-.31,10.84-.62v9.85H391l1,3.6H401a103.23,103.23,0,0,1-4.23,15.06,62,62,0,0,1-7.05,14l-.38.53,1.74,1.6.48-.35a63.07,63.07,0,0,0,10.58-9.8V93.93h2.68a16.57,16.57,0,0,0,6.55-1.29c1.86-.88,2.65-1.56,2.74-2.34V58.2a26.91,26.91,0,0,1,1.19,6.3l0,.31.23.21C417.51,66.77,419.52,67.31,421.53,66.62Z"/><path class="cls-5" d="M547.23,81.71a82.09,82.09,0,0,1-18.86-7,59.33,59.33,0,0,0,11.48-19.1c0-.09.93-2.4,1.3-3.75l.11-.44-8.51-7.78-6.33,6.19V37.69h17.17c2,0,2.69-1,2.88-1.78l.11-.43-.32-.29c-1.5-1.37-3.53-3.13-6.22-5.39-1.19-.91-2.37-1.85-3.51-2.81L536,26.5l-5.58,7.58h-4V21.47l-12.35-1V34.08H499.34c-.86-.89-1.74-1.79-2.62-2.68l-.65-.67-2.89,4.89V20.74l-11.6-1.09V38.13H473l1,3.61h7.57V53.66c-4.23,1.13-7.12,1.85-8.59,2.14l-.83.16,4.65,13.11L480,67.14l1.59-1.07V80.74c0,.23,0,.41-.59.42-2.33-.15-4.79-.28-7.31-.39l-.75,0V83.1l.58.12c2.43.51,4.09,1.5,4.95,3,.73,1.16,1.17,3.5,1.31,7l0,.76.74-.06c5.16-.43,8.56-1.66,10.42-3.76,1.48-1.74,2.21-4.57,2.21-8.66V57.57c2.41-1.88,5-4,7.62-6.27l.68,2.13h4.75A64.27,64.27,0,0,0,514.56,75a62.1,62.1,0,0,1-22.4,16.51l-.72.32,1.09,2,.53-.12c10.72-2.39,19.82-6.32,27.06-11.66a55.32,55.32,0,0,0,16.7,11.61l.74.35.25-.79c1.68-5.32,4.7-8.3,9.22-9.13l.5-.09.35-2.1ZM509.07,53.43h17.15a61.47,61.47,0,0,1-6.77,15A39,39,0,0,1,509.07,53.43Zm-6.85-5.54-.72.21c-2.95.86-5.73,1.67-8.32,2.41V41.74h8.37c2,0,2.57-1.11,2.73-1.78l.09-.35-.23-.29c-.3-.38-.77-.92-1.4-1.63h11.33V49.83H502.49l.17-.16Z"/><path class="cls-5" d="M371.34,51.63a23.08,23.08,0,0,1-6.09-7.3l-.07-.14a10,10,0,0,1-.75-2.14l-.14-.55h-17.6L347.8,45l-2.71-.93-.15.84a67.11,67.11,0,0,1-1.74,7.52c-1.25-1.21-3-2.8-5.2-4.74-1-.86-2-1.71-3-2.54l-.59-.48L331,49.46V39.57l-4.45-.41a.66.66,0,0,0,0-.14v-1.1h35v3h.72a43.58,43.58,0,0,0,5.06-.22,31.88,31.88,0,0,0,4.24-.83c1.48-.4,2.33-.79,2.33-1.58V23.75l-12.35-1v11.6H350.13V21l-12.27-.9V34.31H326.52V23.68l-11.9-1V41.59h2.45a26.07,26.07,0,0,0,2.67-.14v9.9H307.39l1,3.61h8.27c-1.79,11.62-4.78,20.91-8.87,27.61l-.3.5,1.6,1.63.51-.39a56.13,56.13,0,0,0,10.12-10.14V93.78h2.52a14.88,14.88,0,0,0,5.61-1.2c2.19-.89,3.09-1.62,3.09-2.52V65.5a20.54,20.54,0,0,1,1.33,7.14V73l.26.22A6.53,6.53,0,0,0,338.6,75h0a5.35,5.35,0,0,0,3.88-3.77,6.32,6.32,0,0,0-.71-5.43,39,39,0,0,0,8.67-7.52l0,.35A177.17,177.17,0,0,1,347,80.65c-4.76.23-8.18.35-10.17.35h-1.08l5.07,12.27,3.26-1.14c9.25-3.46,16.69-6.47,22.13-8.95a44.88,44.88,0,0,1,2.1,7.92l0,.27.21.18a7.29,7.29,0,0,0,4.56,1.93,5.27,5.27,0,0,0,2.33-.55c2-1.1,3.13-3.05,3.24-5.82.11-3-1.09-6-3.56-8.83-2.82-3.35-7.13-6.09-12.78-8.16l-.29-.11-1.71.87.37.67c1.73,3.13,3.1,5.87,4.08,8.15-2.79.19-6.63.41-11.68.69l-.82,0a104.72,104.72,0,0,0,10.23-16.72,19.7,19.7,0,0,0,.89-2.28l.25-.78-12.88-2.81a44.51,44.51,0,0,0,4.66-6.77c.31-.57.73-1.44,1.1-2.18l.37-.76-8.88-3h14.18c1.42,10,4.59,17.78,9.43,23l.9,1,.33-1.29a12.38,12.38,0,0,1,2.81-5.19,12.9,12.9,0,0,1,4.73-3.48l.45-.19v-2l-.48-.17A29.78,29.78,0,0,1,371.34,51.63ZM339,62.84A21.83,21.83,0,0,0,331,59.51V55h9.65a3.26,3.26,0,0,0,2-.51A55.17,55.17,0,0,1,339,62.84Z"/><path class="cls-5" d="M11.78,27.87A6.59,6.59,0,0,1,7.22,26l1.44-1.75a5.37,5.37,0,0,0,1.52,1,3.92,3.92,0,0,0,1.65.4,2.4,2.4,0,0,0,1.48-.39,1.27,1.27,0,0,0,.52-1.07,1.25,1.25,0,0,0-.49-1,7.07,7.07,0,0,0-1.27-.66L12,22.5l-1.67-.72a3.57,3.57,0,0,1-2.53-3.41A3.33,3.33,0,0,1,9,15.74a4.64,4.64,0,0,1,3.11-1,5.44,5.44,0,0,1,2.13.43A5.32,5.32,0,0,1,16,16.33l-1.27,1.59a4,4,0,0,0-2.65-1,2.2,2.2,0,0,0-1.32.36,1.15,1.15,0,0,0-.49,1,1.17,1.17,0,0,0,.54,1,6.68,6.68,0,0,0,1.3.64l.12.05,1.64.7a4.53,4.53,0,0,1,1.82,1.27,3.41,3.41,0,0,1,.7,2.18,3.46,3.46,0,0,1-1.22,2.69A4.81,4.81,0,0,1,11.78,27.87Z"/><path class="cls-5" d="M19,27.63V14.94h2.5v5h4.73v-5h2.48V27.63H26.24V22.14H21.51v5.49Z"/><path class="cls-5" d="M40.06,27.8c-1.09-.11-2.39-.17-3.91-.17h-2a18.21,18.21,0,0,0-2,.09c-.09,0-.13,0-.13-.09A13,13,0,0,0,32.21,25V18.11a30.9,30.9,0,0,0-.13-3.17c0-.06,0-.09.13-.09a17.35,17.35,0,0,0,1.91.09h1.93c1.14,0,2.42-.06,3.83-.17a7.14,7.14,0,0,1,0,1.21,6.62,6.62,0,0,1,0,1.19,24.32,24.32,0,0,0-2.58-.12H34.71V20h2.2c.74,0,1.47,0,2.19-.1a5.2,5.2,0,0,1,0,1.16,5.54,5.54,0,0,1,0,1.17,18.07,18.07,0,0,0-2.19-.1h-2.2V25.5H37.4c.75,0,1.64,0,2.66-.12a5.37,5.37,0,0,1,.06,1.2A5.84,5.84,0,0,1,40.06,27.8Z"/><path class="cls-5" d="M44.18,27.72a5,5,0,0,1-1.36-.09c.13-1.29.2-3,.2-5.14V14.94h2.55L49.2,21.7l1.25,2.74h.08c0-.07,0-.17,0-.31-.19-1.87-.29-3.25-.29-4.13V17.46a23.62,23.62,0,0,0-.1-2.52,4.13,4.13,0,0,1,1.29-.09,4.31,4.31,0,0,1,1.31.09,30.9,30.9,0,0,0-.13,3.17v9.52H50l-3.61-6.79-1.27-2.73h-.08c0,.19,0,.5.08.91.15,1.58.22,2.75.22,3.52v2.55a24.1,24.1,0,0,0,.11,2.54A4.11,4.11,0,0,1,44.18,27.72Z"/><path class="cls-5" d="M61.46,27.87a5.66,5.66,0,0,1-4.27-1.68,6.66,6.66,0,0,1-1.73-4.85,6.77,6.77,0,0,1,1.76-4.89,5.57,5.57,0,0,1,4.24-1.75,5.16,5.16,0,0,1,3.87,1.63L64,17.94a3.38,3.38,0,0,0-2.45-1.06A3.12,3.12,0,0,0,59,18a4.9,4.9,0,0,0-1,3.21,5,5,0,0,0,.93,3.24,3.37,3.37,0,0,0,2.77,1.19,2.32,2.32,0,0,0,1.57-.48V22.69H62.17c-.37,0-.74,0-1.1,0a5.16,5.16,0,0,1,0-1.1,5.94,5.94,0,0,1,0-1.13,18.33,18.33,0,0,0,2.21.1h2.23v5.74a5.22,5.22,0,0,1-1.69,1.08A6.43,6.43,0,0,1,61.46,27.87Z"/><path class="cls-5" d="M11.78,48.46a6.59,6.59,0,0,1-4.56-1.85l1.44-1.75a5.37,5.37,0,0,0,1.52,1,3.9,3.9,0,0,0,1.65.39,2.47,2.47,0,0,0,1.48-.38,1.29,1.29,0,0,0,.52-1.08,1.27,1.27,0,0,0-.49-1,7.23,7.23,0,0,0-1.27-.65l-.12,0-1.67-.72A3.57,3.57,0,0,1,7.75,39,3.32,3.32,0,0,1,9,36.33a4.59,4.59,0,0,1,3.11-1A5.56,5.56,0,0,1,16,36.91l-1.27,1.6a4.06,4.06,0,0,0-2.65-1,2.2,2.2,0,0,0-1.32.36,1.19,1.19,0,0,0,.05,2,6.25,6.25,0,0,0,1.3.63l.12.05,1.64.71a4.43,4.43,0,0,1,1.82,1.27,3.41,3.41,0,0,1,.7,2.18,3.46,3.46,0,0,1-1.22,2.69A4.81,4.81,0,0,1,11.78,48.46Z"/><path class="cls-5" d="M24,48.46a5.06,5.06,0,0,1-4-1.78,7.18,7.18,0,0,1-1.56-4.86A7,7,0,0,1,19.94,37a5.14,5.14,0,0,1,4-1.72A5.14,5.14,0,0,1,28,37a7.13,7.13,0,0,1,1.55,4.83A7.22,7.22,0,0,1,28,46.68,5.06,5.06,0,0,1,24,48.46Zm0-2.2a2.58,2.58,0,0,0,2.22-1.2A5.63,5.63,0,0,0,27,41.82a5.43,5.43,0,0,0-.82-3.2,2.7,2.7,0,0,0-4.44,0,5.49,5.49,0,0,0-.82,3.19,5.69,5.69,0,0,0,.83,3.25A2.54,2.54,0,0,0,24,46.26Z"/><path class="cls-5" d="M33.6,48.31a5.06,5.06,0,0,1-1.37-.09,50.48,50.48,0,0,0,.2-5.15V35.52H35l3.63,6.76L39.86,45H40c0-.07,0-.17,0-.31-.19-1.88-.28-3.25-.28-4.14V38.05a23.49,23.49,0,0,0-.11-2.53,4.78,4.78,0,0,1,1.29-.08,5.11,5.11,0,0,1,1.32.08A28.28,28.28,0,0,0,42,38.7v9.52H39.46l-3.62-6.79L34.58,38.7h-.09c0,.19,0,.49.09.91.14,1.58.22,2.75.22,3.51v2.56a24.68,24.68,0,0,0,.1,2.54A4.07,4.07,0,0,1,33.6,48.31Z"/><path class="cls-5" d="M50.87,48.46a5.66,5.66,0,0,1-4.27-1.68,6.66,6.66,0,0,1-1.72-4.86A6.8,6.8,0,0,1,46.63,37a5.62,5.62,0,0,1,4.24-1.75,5.2,5.2,0,0,1,3.87,1.63L53.4,38.53A3.39,3.39,0,0,0,51,37.46a3.13,3.13,0,0,0-2.55,1.17,4.85,4.85,0,0,0-1,3.21,5,5,0,0,0,.93,3.24,3.34,3.34,0,0,0,2.76,1.18,2.32,2.32,0,0,0,1.57-.48v-2.5H51.58c-.37,0-.74,0-1.1,0a5.16,5.16,0,0,1,0-1.1,5.85,5.85,0,0,1,0-1.13,18.33,18.33,0,0,0,2.21.1h2.23v5.73A5,5,0,0,1,53.24,48,6.32,6.32,0,0,1,50.87,48.46Z"/></g></g></svg>